<svg width="64" height="64" viewBox="0 0 64 64" fill="none" xmlns="http://www.w3.org/2000/svg">
<path d="M48.4453 26.3789C48.6146 26.2227 48.7448 26.0339 48.8359 25.8125C48.9271 25.5911 48.9727 25.3568 48.9727 25.1094C48.9727 24.7708 48.8945 24.4648 48.7383 24.1914C48.582 23.931 48.3737 23.7227 48.1133 23.5664C47.8398 23.4102 47.5339 23.332 47.1953 23.332C46.6615 23.332 46.2383 23.5013 45.9258 23.8398L30.9648 39.1133L33.0547 39.1133L18.0937 23.8398C17.7682 23.5013 17.345 23.332 16.8242 23.332C16.4857 23.332 16.1862 23.4102 15.9258 23.5664C15.6523 23.7227 15.4375 23.931 15.2812 24.1914C15.125 24.4648 15.0469 24.7708 15.0469 25.1094C15.0469 25.6172 15.2227 26.0404 15.5742 26.3789L30.6914 41.8477C30.8607 42.0299 31.0625 42.1732 31.2969 42.2773C31.5182 42.3815 31.7526 42.4336 32 42.4336C32.5208 42.4336 32.9635 42.2383 33.3281 41.8477L48.4453 26.3789Z" fill="white"/>
</svg>
