<svg width="64" height="64" viewBox="0 0 64 64" fill="none" xmlns="http://www.w3.org/2000/svg">
<path d="M15.5547 37.6211C15.3854 37.7773 15.2552 37.9661 15.1641 38.1875C15.0729 38.4089 15.0273 38.6432 15.0273 38.8906C15.0273 39.2292 15.1055 39.5352 15.2617 39.8086C15.418 40.069 15.6263 40.2773 15.8867 40.4336C16.1602 40.5898 16.4661 40.668 16.8047 40.668C17.3385 40.668 17.7617 40.4987 18.0742 40.1602L33.0352 24.8867H30.9453L45.9062 40.1602C46.2318 40.4987 46.6549 40.668 47.1758 40.668C47.5143 40.668 47.8138 40.5898 48.0742 40.4336C48.3477 40.2773 48.5625 40.069 48.7188 39.8086C48.875 39.5352 48.9531 39.2292 48.9531 38.8906C48.9531 38.3828 48.7773 37.9596 48.4258 37.6211L33.3086 22.1523C33.1393 21.9701 32.9375 21.8268 32.7031 21.7227C32.4818 21.6185 32.2474 21.5664 32 21.5664C31.4792 21.5664 31.0365 21.7617 30.6719 22.1523L15.5547 37.6211Z" fill="white"/>
</svg>
